<svg height="512" viewBox="0 0 64 64" width="512" xmlns="http://www.w3.org/2000/svg"><g id="Rating-Shop"><path d="m46 13v24a4.232 4.232 0 0 1 -.05.63 4 4 0 0 1 -2.64 3.14 3.8 3.8 0 0 1 -1.31.23h-20a3.8 3.8 0 0 1 -1.31-.23 4 4 0 0 1 -2.64-3.14 4.232 4.232 0 0 1 -.05-.63v-24z" fill="#00ccb3"/><path d="m46 13v5.46a3.994 3.994 0 0 1 -6-3.46 4 4 0 0 1 -8 0 4 4 0 0 1 -8 0 3.994 3.994 0 0 1 -6 3.46v-5.46z" fill="#00b39d"/><path d="m48 9h-32l6-6h20z" fill="#ff9811"/><path d="m58.72 21.21a3.014 3.014 0 0 0 -3.48 2.44l-1.33 7.53a1.9 1.9 0 0 0 -.48-.14 2.992 2.992 0 0 0 -2.82 1.03l-4.66 5.56-2.64 3.14-.05.06-1.52 1.81-1.38 7.83 11.82 2.08.34-1.97 4.81-4.23 3.82-21.66a3 3 0 0 0 -2.43-3.48z" fill="#ffc477"/><path d="m37.94 24.42a3.2 3.2 0 0 1 -.58 4.56l-5.36 4.02-5.36-4.02a3.2 3.2 0 1 1 3.84-5.12l1.52 1.14 1.52-1.14a3.2 3.2 0 0 1 4.42.56z" fill="#ed1c24"/><path d="m22.26 42.64-1.52-1.81-.05-.06-2.64-3.14-4.66-5.56a2.992 2.992 0 0 0 -2.82-1.03 1.9 1.9 0 0 0 -.48.14l-1.33-7.53a3 3 0 1 0 -5.91 1.04l3.82 21.66 4.81 4.23.34 1.97 11.82-2.08z" fill="#ffc477"/><path d="m48 9v4a4 4 0 0 1 -8 0 4 4 0 0 1 -8 0 4 4 0 0 1 -8 0 4 4 0 0 1 -8 0v-4z" fill="#ff5023"/><path d="m22.655 50.644-1.334-7.566-8.7-10.366a2 2 0 0 0 -1.878-.688 3.049 3.049 0 0 0 -.349.108 1.97 1.97 0 0 0 -.616.352 2 2 0 0 0 -.223 2.805l7.348 8.748-1.531 1.286-7.351-8.75a3.98 3.98 0 0 1 1.7-6.326 2.966 2.966 0 0 1 .67-.192 4 4 0 0 1 3.76 1.373l8.875 10.572a1 1 0 0 1 .219.469l1.38 7.83z" fill="#ffb655"/><path d="m41.344 50.643-1.97-.348 1.38-7.829a1 1 0 0 1 .218-.466l8.872-10.572a4.012 4.012 0 0 1 3.76-1.367 3.077 3.077 0 0 1 .667.186 3.815 3.815 0 0 1 1.2.68 4.015 4.015 0 0 1 .5 5.644l-7.349 8.757-1.522-1.287 7.348-8.757a2.008 2.008 0 0 0 -.249-2.821 3.992 3.992 0 0 0 -.689-.371 1.294 1.294 0 0 0 -.25-.064 1.984 1.984 0 0 0 -1.88.684l-8.7 10.365z" fill="#ffb655"/><g fill="#3d9ae2"><path d="m54.15 52.9-1.39 7.88-15.76-2.78 1.39-7.88 1.97.35 11.82 2.08z"/><path d="m25.61 50.12 1.39 7.88-15.76 2.78-1.39-7.88 1.97-.35 11.82-2.08z"/></g></g></svg>